<svg width="50" height="50" viewBox="0 0 50 50" fill="none" xmlns="http://www.w3.org/2000/svg">
<g clip-path="url(#clip0_1583_1112)">
<path d="M26.1038 6.71303C25.8108 6.42009 25.4135 6.25552 24.9992 6.25552C24.5849 6.25552 24.1876 6.42009 23.8947 6.71303C23.6017 7.00597 23.4371 7.40328 23.4371 7.81756V12.5037C23.4371 12.918 23.6017 13.3153 23.8947 13.6082C24.1876 13.9011 24.5849 14.0657 24.9992 14.0657C25.4135 14.0657 25.8108 13.9011 26.1038 13.6082C26.3967 13.3153 26.5613 12.918 26.5613 12.5037V7.81756C26.5613 7.40328 26.3967 7.00597 26.1038 6.71303Z" fill="#84A81F"/>
<path d="M12.7696 11.2091C12.3554 11.2091 11.9582 11.3736 11.6652 11.6664C11.3724 11.9594 11.2079 12.3566 11.2079 12.7708C11.2079 13.185 11.3724 13.5822 11.6652 13.8752L14.5207 16.7337C14.814 17.027 15.2119 17.1918 15.6267 17.1918C16.0415 17.1918 16.4393 17.027 16.7326 16.7337C17.026 16.4404 17.1908 16.0426 17.1908 15.6278C17.1908 15.213 17.026 14.8151 16.7326 14.5218L13.874 11.6664C13.5811 11.3736 13.1838 11.2091 12.7696 11.2091Z" fill="#84A81F"/>
<path d="M6.71168 23.8955C6.41873 24.1884 6.25415 24.5857 6.25415 25C6.25415 25.4143 6.41873 25.8116 6.71168 26.1045C7.00462 26.3975 7.40195 26.5621 7.81624 26.5621H12.7712C13.1855 26.5621 13.5828 26.3975 13.8758 26.1045C14.1687 25.8116 14.3333 25.4143 14.3333 25C14.3333 24.5857 14.1687 24.1884 13.8758 23.8955C13.5828 23.6025 13.1855 23.438 12.7712 23.438H7.81624C7.40195 23.438 7.00462 23.6025 6.71168 23.8955Z" fill="#84A81F"/>
<path d="M36.3914 23.8955C36.0984 24.1884 35.9339 24.5857 35.9339 25C35.9339 25.4143 36.0984 25.8116 36.3914 26.1045C36.6843 26.3975 37.0817 26.5621 37.4959 26.5621H42.1822C42.5965 26.5621 42.9938 26.3975 43.2868 26.1045C43.5797 25.8116 43.7443 25.4143 43.7443 25C43.7443 24.5857 43.5797 24.1884 43.2868 23.8955C42.9938 23.6025 42.5965 23.438 42.1822 23.438H37.4959C37.0817 23.438 36.6843 23.6025 36.3914 23.8955Z" fill="#84A81F"/>
<path d="M37.4784 11.3834C37.7833 11.395 38.0727 11.5205 38.2895 11.7352H38.2926C38.5036 11.9468 38.6293 12.2287 38.646 12.527C38.6627 12.8254 38.5692 13.1195 38.3832 13.3534L27.6548 26.7776C27.4077 27.0871 27.0988 27.3415 26.7477 27.5246C26.3966 27.7077 26.0111 27.8155 25.616 27.841C25.2208 27.8665 24.8247 27.8092 24.453 27.6727C24.0813 27.5362 23.7422 27.3236 23.4574 27.0484C23.1727 26.7733 22.9485 26.4417 22.7994 26.0749C22.6502 25.7081 22.5793 25.3142 22.5912 24.9184C22.6031 24.5227 22.6976 24.1337 22.8685 23.7766C23.0395 23.4194 23.2832 23.1019 23.584 22.8444L36.643 11.6727C36.8755 11.4751 37.1736 11.3719 37.4784 11.3834Z" fill="#84A81F"/>
<path fill-rule="evenodd" clip-rule="evenodd" d="M11.7106 46.1725C14.4913 47.9175 17.5885 49.0978 20.8253 49.6459V49.649C25.9295 50.5133 31.1386 49.7669 35.75 47.5705V46.25H32.75C32.3522 46.25 31.9706 46.092 31.6893 45.8107C31.408 45.5294 31.25 45.1478 31.25 44.75V43.25C31.25 42.8522 31.408 42.4706 31.6893 42.1893C31.9706 41.908 32.3522 41.75 32.75 41.75H35.75V38.75C35.75 38.3522 35.908 37.9706 36.1893 37.6893C36.4706 37.408 36.8522 37.25 37.25 37.25H38.75C39.1478 37.25 39.5294 37.408 39.8107 37.6893C40.092 37.9706 40.25 38.3522 40.25 38.75V41.75H43.25C43.3461 41.75 43.4412 41.7592 43.5342 41.7772C46.7071 38.272 48.8473 33.9084 49.649 29.1738C50.756 22.6365 49.2206 15.9272 45.3807 10.5218C41.5407 5.11651 35.7107 1.45795 29.1731 0.351C22.636 -0.755954 15.9269 0.779208 10.5217 4.61877C5.11651 8.45832 1.458 14.2878 0.351011 20.8247C-0.755978 27.3616 0.779232 34.0705 4.61891 39.4755C6.52013 42.1518 8.92988 44.4275 11.7106 46.1725ZM24.9992 31.2482C18.4168 31.2386 11.9488 32.9695 6.25102 36.2654C4.25818 32.9472 3.18179 29.1594 3.13179 25.2891C3.08179 21.4187 4.05997 17.6045 5.96643 14.2358C7.87289 10.8672 10.6393 8.06488 13.9832 6.11513C17.327 4.16537 21.1284 3.13804 24.9992 3.13804C28.87 3.13804 32.6715 4.16537 36.0153 6.11513C39.3591 8.06488 42.1256 10.8672 44.032 14.2358C45.9385 17.6045 46.9167 21.4187 46.8667 25.2891C46.8167 29.1594 45.7403 32.9472 43.7474 36.2654C38.2333 33.0758 31.8287 31.2482 24.9992 31.2482Z" fill="#84A81F"/>
<path fill-rule="evenodd" clip-rule="evenodd" d="M36.5 40.5C36.5 40.2348 36.6054 39.9804 36.7929 39.7929C36.9804 39.6054 37.2348 39.5 37.5 39.5H38.5C38.7652 39.5 39.0196 39.6054 39.2071 39.7929C39.3946 39.9804 39.5 40.2348 39.5 40.5V42.5H41.5C41.7652 42.5 42.0196 42.6054 42.2071 42.7929C42.3946 42.9804 42.5 43.2348 42.5 43.5V44.5C42.5 44.7652 42.3946 45.0196 42.2071 45.2071C42.0196 45.3946 41.7652 45.5 41.5 45.5H39.5V47.5C39.5 47.7652 39.3946 48.0196 39.2071 48.2071C39.0196 48.3946 38.7652 48.5 38.5 48.5H37.5C37.2348 48.5 36.9804 48.3946 36.7929 48.2071C36.6054 48.0196 36.5 47.7652 36.5 47.5V45.5H34.5C34.2348 45.5 33.9804 45.3946 33.7929 45.2071C33.6054 45.0196 33.5 44.7652 33.5 44.5V43.5C33.5 43.2348 33.6054 42.9804 33.7929 42.7929C33.9804 42.6054 34.2348 42.5 34.5 42.5H36.5V40.5Z" fill="#393939"/>
</g>
<defs>
<clipPath id="clip0_1583_1112">
<rect width="50" height="50" fill="white"/>
</clipPath>
</defs>
</svg>
