<svg width="188" height="251" viewBox="0 0 188 251" xmlns="http://www.w3.org/2000/svg">
<path fill-rule="evenodd" fill="#f5f5f5" clip-rule="evenodd" d="M171.844 0.664528C171.296 1.11388 171.25 1.30751 171.567 1.82792C171.887 2.35281 171.827 2.56468 171.194 3.15934C170.779 3.5482 170.353 4.21647 170.245 4.64439C170.138 5.0723 169.768 5.70408 169.423 6.04878C168.937 6.53462 168.861 6.84603 169.087 7.44005C169.372 8.18801 169.024 8.92669 168.388 8.92669C168.239 8.92669 167.728 9.20002 167.251 9.53447C166.773 9.86861 165.686 10.2274 164.835 10.332C163.984 10.4364 163.119 10.6268 162.913 10.7545C162.708 10.8825 162.209 10.9446 161.805 10.8925C161.332 10.8313 160.718 11.1424 160.077 11.7681C159.112 12.712 159.099 12.7612 159.618 13.5531C159.912 14.0011 160.067 14.3676 159.962 14.3676C159.658 14.3676 159.026 13.595 158.91 13.081C158.657 11.9605 158.115 11.7265 156.227 11.9237C155.212 12.0296 154.086 12.2991 153.726 12.5218C153.184 12.8582 153.02 12.8454 152.766 12.4473C152.598 12.1832 152.458 11.7185 152.456 11.4145C152.448 10.5231 151.173 9.94766 148.674 9.70666C146.776 9.52359 146.102 9.58824 145.071 10.053C143.678 10.6806 143.33 11.8309 144.359 12.4063C145.017 12.774 145.246 15.9679 144.615 15.9679C143.987 15.9679 142.202 17.6315 142.202 18.2172C142.202 19.097 140.893 19.2535 140.061 18.4729C138.884 17.3678 136.117 18.0965 136.117 19.5118C136.117 19.8335 135.928 20.2118 135.697 20.3526C134.934 20.8179 134.195 22.1769 134.195 23.1143C134.195 23.8789 134.099 23.9932 133.635 23.7787C133.327 23.6363 132.457 23.5131 131.702 23.5045C130.947 23.4961 130.226 23.3239 130.1 23.122C129.975 22.92 129.054 22.3683 128.054 21.8959C126.402 21.1149 126.064 21.0631 124.332 21.3252C122.65 21.5797 122.384 21.5451 122.063 21.0311C121.671 20.4041 120.586 20.246 120.263 20.7686C120.154 20.9447 119.484 21.0887 118.774 21.0887C117.974 21.0887 117.177 21.3287 116.681 21.7186C116.044 22.2185 115.586 22.3084 114.457 22.1535C113.091 21.9666 113.02 21.998 112.66 22.9536C112.347 23.781 112.157 23.916 111.527 23.7583C110.935 23.6098 110.567 23.805 109.844 24.649C108.818 25.8472 108.711 26.4185 109.276 27.6578C109.527 28.2096 109.548 28.5699 109.336 28.713C108.874 29.0241 107.698 32.2227 107.49 33.7308C107.374 34.57 107.02 35.2654 106.462 35.7503C105.965 36.1817 105.611 36.8222 105.611 37.2885V38.088L104.881 37.4034C104.45 36.9982 103.845 36.762 103.4 36.8251C102.723 36.9208 102.659 37.0699 102.753 38.3239C102.838 39.4437 102.728 39.8073 102.193 40.1821C101.827 40.4385 101.527 40.9093 101.527 41.2287C101.527 41.6825 101.2 41.8457 100.024 41.9782C98.7689 42.1197 98.2491 41.9945 96.8786 41.2216C95.9758 40.7124 94.8977 39.935 94.483 39.4937C94.0682 39.0526 93.4722 38.6916 93.1586 38.6916C92.7589 38.6916 92.5245 38.3514 92.3746 37.5532C92.111 36.1491 91.2242 35.5304 89.1184 35.2811C87.8664 35.1329 87.248 34.8391 86.2785 33.9311C83.633 31.4539 82.4583 31.0996 81.1045 32.3706L80.3374 33.0907L79.7141 32.2352C77.9751 29.8495 77.9776 29.8514 76.8137 30.327C76.226 30.5674 75.0964 30.8647 74.3037 30.9876C72.8369 31.2152 70.9796 32.0303 70.626 32.6016C70.5187 32.7754 70.5918 33.2181 70.7887 33.5855C71.068 34.1072 71.0363 34.4221 70.6433 35.0212C70.3666 35.4434 70.1402 35.992 70.1402 36.2406C70.1402 36.4893 69.924 36.8721 69.6598 37.0913C69.3955 37.3106 69.1793 37.741 69.1793 38.0483C69.1793 38.3552 68.6227 38.9745 67.9421 39.4245C66.8618 40.1389 66.6463 40.184 66.2412 39.7788C65.1996 38.738 60.8813 40.6446 61.6103 41.8233C61.7054 41.9773 61.5661 42.8116 61.3009 43.6777C60.8026 45.3052 60.9275 47.784 61.5267 48.1543C61.725 48.2765 61.732 48.4897 61.5453 48.7217C61.0825 49.2969 61.6955 50.5336 62.4433 50.5336C63.1876 50.5336 63.2411 50.9467 62.7492 52.8994C62.2745 54.7826 59.3322 57.8948 58.0264 57.8948C56.6688 57.8948 56.0481 58.7778 56.0481 60.7093C56.0481 62.9487 56.442 63.1235 61.6529 63.1942C66.7276 63.2633 67.9495 63.6333 68.8354 65.3699L69.4622 66.5983L68.2547 67.7809C67.5908 68.4312 66.6264 69.843 66.1118 70.918L65.1759 72.8729L63.2543 73.193C62.1974 73.369 60.5399 73.5169 59.5711 73.521C58.6023 73.5255 57.6322 73.5399 57.4153 73.5534C57.1985 73.5665 56.9298 73.9413 56.818 74.3858C56.7062 74.8307 56.3434 75.3399 56.0112 75.5175C55.5571 75.7601 55.4075 76.197 55.4075 77.2794C55.4075 79.2858 54.6273 81.0813 53.8878 80.7773C52.6346 80.2617 52.127 80.2319 51.382 80.6304C50.6979 80.9962 50.5121 80.9671 49.8815 80.3954C49.0658 79.6555 46.9673 79.2314 46.1705 79.6452C45.8784 79.7969 44.4404 80.1759 42.9751 80.4873C41.0118 80.9043 40.1593 81.2458 39.7346 81.7851C39.0915 82.6022 38.7532 82.4687 38.7532 81.3975C38.7532 79.9743 34.8779 78.7001 33.9491 79.8184C33.6859 80.1352 32.9697 80.2985 31.8411 80.2985H30.1315L29.7439 81.6587C29.5309 82.4067 29.1088 83.307 28.8065 83.659C27.8716 84.7472 26.8387 87.073 26.9748 87.7835C27.1029 88.4528 27.0501 88.4589 21.7992 88.3628C18.8815 88.3097 16.3215 88.2092 16.1105 88.1394C15.8997 88.0697 15.5718 87.4369 15.3822 86.7331C15.0369 85.4516 13.7782 84.1391 12.8943 84.1391C12.6355 84.1391 11.7829 84.5712 10.9998 85.0993C10.2168 85.6273 9.44042 86.0594 9.27452 86.0594C9.10893 86.0594 8.79314 86.3475 8.57311 86.6995C8.35309 87.0516 7.9774 87.3396 7.73816 87.3396C7.49891 87.3396 6.91249 87.7573 6.4356 88.2678C5.50969 89.258 4.04731 89.581 2.51224 89.1335C1.91492 88.9594 1.41433 89.0478 0.830793 89.4296C0.03491 89.9506 0 90.0991 0 92.9559C0 95.693 0.0544467 95.9551 0.66457 96.1488C1.03032 96.2646 1.40248 96.2867 1.49152 96.1974C1.58056 96.1084 2.14168 96.2393 2.73803 96.4883C3.3347 96.7373 4.26478 96.9412 4.80508 96.9412C5.86871 96.9412 6.83594 97.4616 8.76496 99.0731C9.44618 99.6418 10.4076 100.196 10.9015 100.304C11.3954 100.413 12.1736 100.848 12.6307 101.271C13.3971 101.981 13.4304 102.118 13.0563 103.03C12.7863 103.688 12.1157 104.307 11.0495 104.88C9.51056 105.709 9.44426 105.802 9.35106 107.253C9.26203 108.632 9.32288 108.78 10.0541 108.963C10.5495 109.088 11.1241 108.975 11.5619 108.669C12.0077 108.357 12.4587 108.271 12.7806 108.438C13.0614 108.583 14.5885 108.699 16.1739 108.695C18.6656 108.689 19.2232 108.583 20.2875 107.913C21.722 107.009 22.1925 107.182 21.1929 108.245C20.8105 108.652 20.4976 109.299 20.4976 109.684C20.4976 110.485 21.5465 111.664 22.2591 111.664C22.6056 111.664 22.7395 112.018 22.7395 112.936C22.7395 114.024 22.6015 114.279 21.7819 114.703C20.5543 115.337 18.7178 119.018 18.8584 120.563C18.9042 121.07 21.9638 122.464 23.6212 122.733C25.2082 122.99 26.9393 123.849 27.2743 124.546C27.4226 124.854 27.6666 125.357 27.8171 125.663C27.9677 125.97 28.5442 126.351 29.0982 126.51C29.6523 126.669 30.1058 126.925 30.1058 127.08C30.1058 127.234 29.676 128.308 29.1508 129.465C28.4327 131.047 28.2739 131.716 28.5102 132.158C28.9656 133.008 28.9192 133.075 27.944 132.962C26.2564 132.767 25.286 134.646 26.4653 135.824C26.9143 136.273 26.9492 136.739 26.7119 139.128C26.348 142.792 26.3903 145.132 26.8297 145.661C27.0783 145.96 27.0936 146.504 26.88 147.454C26.627 148.579 26.6722 148.952 27.1385 149.593C27.4495 150.02 27.9328 150.374 28.2127 150.38C28.4929 150.386 29.2366 150.946 29.8659 151.626C30.8729 152.713 31.2406 152.887 32.9361 153.079C34.6662 153.275 35.0285 153.206 36.4937 152.403C37.516 151.844 38.1985 151.23 38.3212 150.761C38.4515 150.263 38.9995 149.805 39.953 149.396C40.7428 149.058 41.7911 148.495 42.2824 148.145C42.7737 147.796 43.55 147.51 44.007 147.51C44.6678 147.51 44.8385 147.665 44.8385 148.266C44.8385 148.683 45.1267 149.39 45.479 149.837C45.8313 150.285 46.1196 151.023 46.1196 151.478C46.1196 151.933 46.3793 152.467 46.697 152.665C47.2027 152.981 47.2344 153.219 46.9539 154.588C46.7364 155.649 46.4738 156.151 46.1365 156.152C45.863 156.153 45.1706 156.439 44.5983 156.788C43.181 157.651 43.2403 158.592 44.8084 160.122C46.5836 161.855 46.7037 163.383 45.2369 165.583C44.3619 166.896 44.1973 167.399 44.3449 168.313C44.4442 168.929 44.5313 169.708 44.538 170.044C44.5448 170.381 44.6876 170.912 44.8554 171.225C45.0524 171.593 45.0466 171.865 44.8394 171.993C44.6626 172.102 44.5182 172.659 44.5182 173.232C44.5182 173.803 44.3065 174.551 44.048 174.893C43.7892 175.234 43.5731 175.806 43.5676 176.163C43.5618 176.52 43.3636 177.096 43.1269 177.443C41.7257 179.499 41.8887 181.435 43.4632 181.435C43.9276 181.435 44.5352 181.628 44.8132 181.862C45.0915 182.098 45.7724 182.469 46.3268 182.688C47.1681 183.02 47.4948 183.003 48.3013 182.586C49.3508 182.044 49.4005 182.076 51.8044 184.801C52.7284 185.849 52.7428 186.799 51.8365 186.934C50.8004 187.088 49.8975 188.542 49.7544 190.287C49.6666 191.357 49.429 191.988 48.986 192.325C48.0041 193.071 47.3984 194.484 47.1848 196.526C47.0596 197.724 46.7838 198.567 46.4056 198.909C45.9537 199.318 45.8947 199.578 46.1477 200.051C46.5968 200.889 46.2861 201.675 45.184 202.489C44.6732 202.867 44.0983 203.651 43.9065 204.231C43.7149 204.812 43.239 205.429 42.8496 205.603C42.4598 205.777 41.8823 206.366 41.5662 206.912L40.9916 207.905L42.1113 209.312C42.7269 210.087 43.2323 210.985 43.2339 211.309C43.2358 211.632 43.8856 212.527 44.6783 213.297C45.471 214.067 46.1196 214.932 46.1196 215.219C46.1196 216.192 43.3809 219.521 42.5812 219.521C42.0915 219.521 42.422 221.351 43.0401 222.061C43.28 222.336 43.6493 223.1 43.8607 223.758C44.0717 224.415 44.3747 225.034 44.5339 225.132C44.6927 225.23 45.3503 226.105 45.995 227.075C47.0205 228.619 47.1214 228.938 46.8046 229.633C46.5209 230.255 46.321 230.364 45.8806 230.133C45.5453 229.957 45.0117 229.955 44.5566 230.126C43.8808 230.381 43.8142 230.56 43.9686 231.71C44.1729 233.232 43.281 235.212 42.1715 235.699C41.6963 235.907 41.4429 236.343 41.3731 237.074C41.302 237.814 40.9318 238.441 40.1721 239.107C38.5178 240.559 38.7065 241.153 41.5227 243.365C42.8669 244.422 44.4231 245.672 44.9807 246.144C45.5383 246.616 46.3844 247.1 46.861 247.22C47.3379 247.339 48.0246 247.853 48.3868 248.362C48.8595 249.025 49.314 249.286 49.9949 249.286C50.5169 249.286 51.8137 249.579 52.8767 249.937C54.4384 250.463 55.4674 250.57 58.2314 250.497C61.4092 250.413 61.6529 250.361 61.6529 249.766C61.6529 248.441 61.8812 248.345 67.2727 247.404C69.3059 247.049 71.7415 245.608 71.7415 244.76C71.7415 244.097 72.4673 243.656 74.5968 243.024C75.4346 242.775 76.3826 242.282 76.7029 241.928C77.0232 241.574 77.4745 241.285 77.7051 241.285C77.936 241.285 78.6178 240.852 79.2206 240.323C79.8237 239.795 80.943 239.141 81.7088 238.871C83.9594 238.077 84.5525 237.56 84.5525 236.391C84.5525 235.614 84.925 234.928 86.0373 233.657C87.3623 232.143 87.5362 231.764 87.6512 230.142C87.7892 228.195 87.8043 226.858 87.712 224.777C87.6493 223.369 88.6056 221.331 89.2183 221.566C89.7929 221.786 90.1564 221.368 90.607 219.968C91.1246 218.36 90.7037 217.24 89.6821 217.507C89.0854 217.663 89.0521 217.562 89.2244 216.118C89.4419 214.297 90.5064 211.387 91.1502 210.853C91.5009 210.563 91.5986 210.587 91.5986 210.967C91.5986 211.507 92.1869 211.82 92.7996 211.606C93.3162 211.426 93.3242 209.92 92.8083 209.92C91.8775 209.92 99.182 204.437 100.854 203.881C102.244 203.419 102.528 203.425 102.464 203.919C102.344 204.845 102.532 205.119 103.289 205.119C103.922 205.119 104.089 204.957 104.089 204.346C104.089 203.92 103.909 203.5 103.689 203.411C103.435 203.308 103.48 203.24 103.812 203.224C104.1 203.21 104.413 203.498 104.509 203.865C104.633 204.34 104.897 204.503 105.427 204.435C105.836 204.382 106.348 204.449 106.565 204.584C107.2 204.979 108.202 204.232 108.312 203.282C108.38 202.693 108.624 202.373 109.054 202.309C110.743 202.058 111.097 201.878 111.193 201.223C111.364 200.06 112.04 200.162 111.985 201.342C111.937 202.384 111.954 202.397 113.217 202.304C113.922 202.252 114.786 202.155 115.139 202.088C115.491 202.022 115.898 201.957 116.042 201.943C116.186 201.929 116.258 201.594 116.202 201.198C116.121 200.633 115.91 200.491 115.219 200.538C114.283 200.602 114.078 200.275 114.738 199.771C115.588 199.124 120.006 197.755 121.243 197.756C121.958 197.757 122.822 197.546 123.165 197.288C123.915 196.721 125.603 196.676 128.233 197.154C129.818 197.442 130.54 197.418 132.015 197.028L133.839 196.548L133.937 197.387C134.085 198.651 135.539 199.071 136.533 198.138C137.421 197.304 138.655 197.243 140.049 197.964C142.135 199.042 145.405 201.387 145.405 201.806C145.405 202.044 145.523 202.239 145.667 202.239C145.812 202.239 146.421 202.676 147.021 203.212C148.318 204.369 149.408 204.377 149.408 203.228C149.408 202.686 149.11 202.305 148.407 201.948C147.856 201.668 147.097 200.968 146.719 200.393C146.342 199.818 145.329 198.843 144.47 198.226C142.5 196.812 141.831 195.849 142.271 195.064C142.491 194.671 142.482 194.244 142.244 193.722C141.772 192.685 139.941 192.656 138.926 193.67C138.262 194.334 137.935 194.382 134.202 194.365C131.193 194.352 129.952 194.221 129.231 193.842C127.95 193.168 123.138 188.197 122.836 187.236C122.693 186.783 122.735 186.39 122.94 186.264C123.13 186.147 123.376 185.193 123.488 184.143C123.632 182.8 123.962 181.848 124.602 180.928C125.102 180.209 125.7 179.004 125.93 178.25C126.209 177.337 127.043 176.149 128.43 174.692C131.443 171.526 132.914 169.636 132.914 168.931C132.914 168.591 133.166 168.022 133.475 167.666C135.727 165.066 136.77 163.892 137.958 162.622C138.707 161.821 139.32 161.024 139.32 160.849C139.32 160.675 138.95 160.048 138.498 159.456C137.368 157.975 137.57 155.865 138.982 154.409C139.52 153.854 139.96 153.081 139.96 152.692C139.96 151.998 140.37 151.646 143.637 149.533C145.009 148.646 144.585 148.66 151.17 149.299C152.139 149.393 153.796 149.672 154.853 149.918C159.597 151.025 163.573 151.226 166.452 150.504C167.371 150.274 167.648 149.249 167.229 147.632C167.052 146.949 166.734 141.565 166.524 135.668C166.175 125.896 166.088 124.895 165.541 124.373C165.211 124.058 164.942 123.371 164.942 122.845C164.942 122.131 164.747 121.816 164.172 121.597C163.749 121.436 163.308 121.152 163.192 120.965C163.077 120.778 162.738 120.623 162.44 120.62C162.143 120.617 161.7 120.489 161.457 120.335C161.091 120.104 161.119 119.915 161.617 119.244C161.948 118.797 162.435 118.45 162.7 118.472C162.964 118.495 163.861 118.325 164.694 118.093C166.063 117.713 166.227 117.564 166.422 116.529C166.696 115.066 166.318 107.47 165.876 105.583C165.691 104.791 165.539 103.353 165.538 102.387C165.537 101.422 165.391 100.458 165.215 100.245C165.038 100.032 164.697 99.02 164.459 97.9955C164.219 96.9713 163.582 95.243 163.041 94.1548C161.781 91.6171 161.743 89.3646 162.882 84.8912C163.674 81.7813 163.685 81.6149 163.147 80.9869C162.838 80.6262 162.467 80.4044 162.322 80.4937C162.178 80.5833 162.059 80.5036 162.059 80.3174C162.059 80.1311 162.402 79.9784 162.821 79.9784C164.045 79.9784 164.452 79.2279 163.866 78.0536C163.595 77.5098 163.452 76.8601 163.548 76.6095C163.734 76.125 162.976 75.1776 162.402 75.1776C162.213 75.1776 162.059 75.0387 162.059 74.8688C162.059 74.3644 163.127 73.9454 163.993 74.1109C164.862 74.277 165.516 73.7147 166.127 72.2767C166.352 71.7457 166.368 71.2647 166.171 70.9139C165.817 70.2818 166.068 69.7367 166.712 69.7367C166.96 69.7367 167.348 69.3946 167.574 68.9766C167.944 68.2911 170.66 63.9972 174.053 58.7359C175.093 57.1225 177.705 53.7386 178.407 53.094C179.014 52.5374 180.14 50.1056 180.483 48.6132C180.704 47.6451 181.678 44.5463 182.645 41.727C184.251 37.0478 184.407 36.3469 184.432 33.6837C184.461 30.6356 185.685 24.0604 186.526 22.4342C186.776 21.9519 186.909 21.1857 186.822 20.7315C186.735 20.2774 186.965 18.896 187.333 17.6622C187.885 15.8097 188.001 14.5603 188 10.4924C187.999 5.96076 187.942 5.47652 187.29 4.44595C186.901 3.82985 186.357 2.60565 186.081 1.7255C185.631 0.286866 185.477 0.115318 184.56 0.025703C183.669 -0.0610313 183.514 0.0401053 183.338 0.825835C182.87 2.92602 182.92 2.87513 181.491 2.6943C180.756 2.60117 179.578 2.32208 178.873 2.07404C178.026 1.77575 177.464 1.7287 177.214 1.93546C176.938 2.1627 176.808 1.95914 176.733 1.18653L176.632 0.125239H174.567C173.105 0.125239 172.31 0.282705 171.844 0.664528ZM184.917 4.9766C184.599 5.22176 184.471 5.76393 184.537 6.57462C184.616 7.53158 184.824 7.89004 185.478 8.20209C185.94 8.42229 186.481 8.79835 186.68 9.03775C187.314 9.80172 187.11 12.8077 186.219 15.8078C185.749 17.3921 185.251 19.4084 185.112 20.2886C184.973 21.1687 184.485 23.4568 184.028 25.3729C183.2 28.8401 182.509 34.4384 182.78 35.4744C182.858 35.773 182.104 38.3834 181.104 41.2751C180.105 44.1671 179.122 47.1961 178.92 48.0064C178.718 48.8165 178.391 49.6806 178.192 49.9267C177.993 50.1725 177.732 50.6968 177.611 51.0917C177.49 51.4867 177.22 51.9943 177.011 52.2196C175.259 54.1114 172.407 57.953 171.386 59.7953C169.316 63.5306 166.02 68.4287 165.566 68.4418C164.872 68.4623 164.303 69.1046 164.291 69.8807C164.281 70.5228 164.271 70.5237 163.816 69.923C163.422 69.4032 163.227 69.3655 162.545 69.6759C162.102 69.8779 161.738 70.1541 161.738 70.2901C161.737 70.4258 161.233 70.5477 160.617 70.5609C159.945 70.5753 159.497 70.4309 159.497 70.1998C159.497 69.4164 158.571 68.9779 157.727 69.3623C157.216 69.5953 156.667 69.6193 156.171 69.4308C155.558 69.1978 155.269 69.2839 154.726 69.8612C154.119 70.5068 154.06 70.8764 154.169 73.3604C154.265 75.5428 154.198 76.1378 153.857 76.1378C153.113 76.1378 152.929 77.7067 153.613 78.2242C153.943 78.4738 154.382 78.6825 154.59 78.688C154.798 78.6937 155.015 79.0077 155.071 79.3857C155.127 79.7637 155.389 80.1791 155.654 80.3087C157.383 81.1569 157.919 81.3418 158.107 81.1546C158.223 81.0381 158.506 81.2106 158.736 81.5384C158.966 81.8661 159.588 82.221 160.119 82.3273C160.82 82.4671 161.033 82.656 160.896 83.0138C160.791 83.2852 160.87 83.7038 161.069 83.9442C161.338 84.2678 161.339 84.6198 161.074 85.3002C160.877 85.8059 160.646 87.6597 160.56 89.42L160.404 92.6205L161.712 95.2846C163.13 98.1725 163.273 98.8935 162.548 99.4946C162.133 99.8387 162.139 100.009 162.593 100.894C162.877 101.449 163.238 101.986 163.396 102.088C163.554 102.19 163.753 102.694 163.838 103.208C163.923 103.722 164.148 104.863 164.339 105.743C164.529 106.623 164.748 109.316 164.825 111.727L164.964 116.111L163.902 116.31C163.317 116.42 162.287 116.463 161.612 116.407C160.664 116.328 160.302 116.447 160.021 116.929C159.821 117.272 159.387 117.785 159.057 118.068C157.814 119.134 159.197 121.498 161.659 122.513C162.275 122.768 162.7 123.172 162.7 123.505C162.7 123.814 162.918 124.249 163.186 124.471C164.381 125.462 164.578 126.743 164.93 135.828C165.122 140.756 165.365 145.739 165.472 146.901L165.665 149.013L164.422 149.215C163.739 149.326 163.135 149.285 163.08 149.124C163.025 148.963 162.267 148.374 161.395 147.815C160.222 147.062 159.551 146.836 158.817 146.943C158.271 147.023 157.012 146.883 156.018 146.632C155.025 146.38 153.865 146.187 153.44 146.203C153.015 146.218 152.185 146.098 151.596 145.935C150.685 145.684 150.475 145.733 150.192 146.261C150.009 146.603 149.948 147.027 150.058 147.204C150.189 147.417 149.228 147.454 147.227 147.313C144.351 147.111 144.144 147.14 143.12 147.883C142.527 148.314 141.537 148.925 140.921 149.242C139.613 149.914 137.946 151.927 138.184 152.547C138.274 152.782 138.128 153.059 137.859 153.162C136.287 153.765 135.535 158.352 136.754 159.901L137.392 160.711L136.596 161.551C134.259 164.017 132.914 165.565 132.914 165.789C132.914 165.927 132.554 166.428 132.113 166.903C131.673 167.378 131.313 168.018 131.313 168.326C131.313 168.634 130.88 169.348 130.352 169.913C129.823 170.478 129.391 171.075 129.391 171.238C129.391 171.402 128.463 172.431 127.33 173.525C125.815 174.987 125.092 175.981 124.605 177.274C124.24 178.243 123.51 179.668 122.983 180.443C122.315 181.425 122.025 182.238 122.025 183.126C122.025 183.85 121.743 184.856 121.371 185.457C120.777 186.417 120.758 186.612 121.165 187.584C121.718 188.907 124.255 191.834 126.709 193.98C128.547 195.587 128.551 195.595 127.453 195.351C125.85 194.995 123.715 195.135 122.692 195.664C122.203 195.917 121.526 196.051 121.187 195.963C120.849 195.874 119.229 196.314 117.588 196.94C115.947 197.566 114.336 198.078 114.009 198.078C113.682 198.078 113.326 198.222 113.217 198.398C113.108 198.574 112.658 198.718 112.216 198.718C111.286 198.718 110.125 199.266 109.764 199.874C109.284 200.686 106.819 201.505 104.77 201.534C101.962 201.574 99.9155 202.345 96.4754 204.659L93.5055 206.656L91.9092 206.146C90.6935 205.757 90.224 205.725 89.9396 206.009C89.3221 206.626 90.1151 207.935 91.1809 208.057L92.079 208.16L90.8834 208.902C90.0321 209.431 89.413 210.221 88.7324 211.646C87.8962 213.397 87.7569 214.099 87.6163 217.268C87.5013 219.859 87.3187 221.039 86.9745 221.42C86.167 222.311 85.6697 225.098 86.0793 226.432C86.3304 227.249 86.3355 227.835 86.0972 228.435C85.9121 228.902 85.7734 229.771 85.7891 230.368C85.8106 231.189 85.5082 231.823 84.55 232.967C83.8531 233.799 83.1001 235.034 82.8765 235.712C82.5284 236.77 82.2469 237.028 80.895 237.53C80.0287 237.851 78.8347 238.539 78.2418 239.059C77.649 239.579 76.9748 240.005 76.7436 240.005C76.5127 240.005 75.9893 240.294 75.581 240.648C75.1726 241.002 74.1148 241.507 73.2302 241.769C71.641 242.24 70.1421 243.313 70.1379 243.981C70.1334 244.678 67.9729 245.787 66.2629 245.97C62.3386 246.391 59.8914 247.564 59.8914 249.024C59.8914 249.653 59.7697 249.685 58.0498 249.504C57.0368 249.397 55.3435 249.002 54.2866 248.624C53.2297 248.247 51.7952 247.864 51.0986 247.773C50.2953 247.667 49.6186 247.335 49.2486 246.865C48.9277 246.457 48.3445 246.023 47.9528 245.901C47.5611 245.779 46.8082 245.342 46.2797 244.932C45.7512 244.521 44.7039 243.713 43.9526 243.135C41.0266 240.886 40.8911 240.752 41.1419 240.347C41.2863 240.113 41.783 240.001 42.3201 240.079C43.5263 240.256 43.9837 239.673 43.8094 238.18C43.664 236.936 44.221 235.813 45.7266 234.314C46.3018 233.741 46.3857 233.461 46.1269 232.977C45.6725 232.129 45.7096 232.004 46.4165 232.004C47.1249 232.004 48.283 230.668 48.5719 229.517C48.8038 228.594 47.6181 226.105 46.206 224.55C45.8525 224.161 45.4608 223.41 45.3359 222.882C45.2109 222.354 44.9022 221.693 44.6498 221.413C44.2463 220.965 44.302 220.788 45.1161 219.937C46.5103 218.479 47.8202 216.059 47.7898 214.997C47.7658 214.155 47.2392 213.327 45.3243 211.12C45.0572 210.812 44.8385 210.473 44.8385 210.366C44.8385 210.259 44.4163 209.639 43.9001 208.988C43.3159 208.251 43.0574 207.65 43.2153 207.395C43.3546 207.169 43.5609 206.997 43.6733 207.012C44.3616 207.104 44.5839 206.918 45.0755 205.839C45.3765 205.179 46.1666 204.03 46.8319 203.286C47.7475 202.261 48.0412 201.658 48.0412 200.801C48.0412 200.179 48.1783 199.419 48.3458 199.114C48.5133 198.808 48.7362 197.759 48.8413 196.783C48.9844 195.449 49.2679 194.732 49.9814 193.902C50.882 192.854 51.5585 191.194 51.5623 190.023C51.5655 189.083 51.9374 188.476 52.5097 188.476C53.2556 188.476 53.9355 187.619 54.3663 186.133C54.676 185.066 54.6424 184.831 54.1034 184.293C53.7639 183.953 53.2697 183.676 53.0055 183.676C52.5158 183.676 52.4424 183.408 52.3931 181.44C52.3649 180.327 52.3624 180.325 50.7635 180.269C49.8421 180.237 48.8611 180.405 48.4528 180.664C47.424 181.318 46.6154 181.221 45.5373 180.315C45.014 179.875 44.4147 179.515 44.2056 179.515C43.9689 179.515 44.0769 179.108 44.4919 178.437C44.8586 177.844 45.1632 177.088 45.169 176.757C45.1744 176.425 45.3906 175.875 45.6494 175.533C45.9079 175.191 46.1196 174.591 46.1196 174.199C46.1196 173.807 46.3671 173.055 46.6695 172.528C47.1428 171.704 47.1598 171.459 46.7918 170.773C46.5567 170.333 46.4674 169.807 46.5936 169.603C46.7198 169.4 46.5865 168.972 46.2973 168.653C45.8099 168.114 45.8118 167.988 46.3236 166.916C46.6272 166.279 47.1377 165.676 47.4577 165.574C48.1664 165.35 48.5806 163.923 48.0819 163.425C47.8833 163.226 47.7209 162.559 47.7209 161.941C47.7209 161.076 47.4458 160.537 46.5222 159.592C45.5319 158.579 45.4066 158.313 45.8015 158.066C46.0645 157.901 46.5167 157.84 46.8066 157.93C47.5989 158.176 48.3615 157.206 48.3615 155.952C48.3615 155.34 48.5918 154.394 48.873 153.85C49.4507 152.734 49.0827 151.35 48.2081 151.35C47.9403 151.35 47.7209 151.12 47.7209 150.839C47.7209 150.559 47.4176 149.903 47.0471 149.383C46.6294 148.797 46.4424 148.175 46.5548 147.745C46.8591 146.582 45.9325 145.909 44.0272 145.909C42.9914 145.909 42.2141 146.078 41.9858 146.354C41.783 146.598 40.6778 147.246 39.5296 147.794C38.2434 148.408 37.247 149.128 36.9341 149.67C36.2122 150.921 34.2848 151.782 33.1616 151.355C32.6844 151.174 32.1841 151.094 32.0496 151.176C31.778 151.344 29.7856 149.216 29.7856 148.759C29.7856 148.6 29.4807 148.47 29.1075 148.47C28.5314 148.47 28.4609 148.338 28.6374 147.59C28.9826 146.127 28.957 145.798 28.4055 144.573C27.9568 143.578 27.926 143.037 28.206 141.052C28.5304 138.751 28.5986 135.439 28.3305 135.005C28.2559 134.884 28.6169 134.701 29.1328 134.598C30.3669 134.351 30.8127 133.494 30.4197 132.124C30.2496 131.532 30.2368 130.981 30.3912 130.883C30.5436 130.786 30.9209 129.902 31.23 128.918C31.7213 127.354 31.7357 127.012 31.3459 126.198C31.0823 125.646 30.6007 125.223 30.1657 125.161C29.7615 125.104 29.3096 124.744 29.1617 124.361C28.6345 122.998 26.0803 121.266 24.5971 121.265C23.8438 121.265 21.0225 120.296 20.6292 119.903C20.5091 119.783 20.6654 119.297 20.9764 118.823C21.2874 118.348 21.6419 117.587 21.764 117.132C21.9696 116.366 22.1204 116.304 23.7964 116.303C25.197 116.302 25.7562 116.153 26.2673 115.642C27.1945 114.715 26.8076 113.779 25.5973 114.021C24.7252 114.195 24.6989 114.158 24.484 112.44C24.2935 110.915 24.1375 110.615 23.3131 110.189C22.4573 109.747 22.409 109.643 22.833 109.16C23.7461 108.12 23.8134 107.184 23.0342 106.356C22.1207 105.384 21.1513 105.376 19.7462 106.329C18.7604 106.997 18.3521 107.064 15.8088 106.968C14.2481 106.909 12.4667 106.85 11.8502 106.838L10.7292 106.815L12.0103 106.162C13.7106 105.295 14.7326 104.328 14.7326 103.586C14.7326 103.253 14.8694 102.725 15.0366 102.413C15.5759 101.405 15.0427 100.467 13.4903 99.6917C12.6762 99.2856 11.6205 98.8593 11.144 98.7447C10.6674 98.6301 9.89361 98.0336 9.4244 97.4187C8.9552 96.8042 8.33643 96.2966 8.04882 96.2909C7.76154 96.2854 7.24654 96.0694 6.9048 95.8108C6.56275 95.5525 5.76174 95.341 5.1244 95.341C4.48705 95.341 3.68604 95.1294 3.34399 94.8711C3.00226 94.6125 2.47028 94.3965 2.16185 94.391C1.75222 94.3837 1.60137 94.1167 1.60137 93.3995C1.60137 92.8599 1.45116 92.1375 1.26733 91.7944C0.805171 90.9319 1.73493 90.5923 2.54747 91.3268C3.06183 91.7922 3.25816 91.8108 3.89678 91.4542C4.3077 91.2247 5.00429 91.0039 5.44467 90.9636C5.88505 90.9233 6.63962 90.4515 7.12163 89.9151C7.60364 89.3787 8.32042 88.9399 8.715 88.9399C9.12143 88.9399 9.85133 88.4761 10.4009 87.8687C10.9339 87.2795 11.7528 86.5517 12.2207 86.2511C13.2133 85.6139 13.4192 85.8008 13.9464 87.8191C14.4431 89.7215 15.1929 89.9593 20.5975 89.9266C23.6962 89.9081 25.702 90.0508 26.9031 90.3756C28.5169 90.8119 28.6982 90.8068 29.0649 90.3148C29.5915 89.6085 29.57 89.2318 28.9538 88.3526C28.5195 87.733 28.5038 87.474 28.85 86.6384C29.0745 86.0972 29.5713 85.2775 29.9543 84.8167C30.3377 84.3561 30.7957 83.547 30.9725 83.0189C31.2748 82.1167 31.3824 82.0645 32.7628 82.1529C33.9709 82.2303 34.2941 82.1308 34.582 81.5928C35.0611 80.6985 35.759 80.7706 36.0024 81.7387C36.1129 82.1788 36.3915 82.5388 36.6218 82.5388C36.8518 82.5388 37.3895 82.9143 37.8168 83.3729C38.2437 83.8315 38.9268 84.3359 39.3345 84.4931C40.3437 84.8826 41.4295 84.2898 41.2142 83.4673C41.008 82.679 41.522 82.4111 44.5233 81.7416C47.622 81.0506 48.2289 81.0903 49.3796 82.0578C50.499 82.9991 50.4894 82.9978 51.7074 82.3631C52.5882 81.9042 52.7124 81.917 53.5733 82.5526C54.4701 83.2154 54.5133 83.218 55.1532 82.6464C55.9843 81.9038 57.0089 79.5598 57.0089 78.4012C57.0089 77.915 57.2972 77.2564 57.6495 76.9379C58.0018 76.6195 58.29 76.093 58.29 75.7681C58.29 75.2599 58.5683 75.1741 60.2917 75.153C61.3928 75.1395 62.5817 75.0605 62.934 74.977C63.2863 74.8937 64.1994 74.7408 64.9629 74.6367C65.8315 74.519 66.416 74.2552 66.5239 73.9326C67.1706 72.0033 68.387 69.9726 69.7892 68.4821C70.6869 67.5284 71.4213 66.5429 71.4213 66.2926C71.4213 65.8702 70.9726 65.1952 69.3395 63.1609C68.4241 62.0206 64.8217 61.3091 60.9323 61.5005C58.888 61.601 57.9684 61.536 57.9652 61.2909C57.963 61.0953 57.874 60.6114 57.768 60.2152C57.5969 59.5776 57.693 59.495 58.6055 59.495C59.4664 59.495 59.9929 59.1209 61.7973 57.2259C64.1273 54.7791 64.6955 53.4128 64.6955 50.2558C64.6955 48.9707 64.5293 48.5704 63.5745 47.559C62.2902 46.1984 62.2726 46.0874 62.9702 43.7692C63.2543 42.8248 63.538 41.8723 63.6008 41.6521C63.7635 41.0802 65.0215 41.1579 65.7124 41.783C66.2363 42.2567 66.4458 42.266 67.6593 41.8681C68.9728 41.4373 71.0962 39.5503 71.0994 38.8107C71.1004 38.6122 71.3271 38.2624 71.6038 38.0329C71.8966 37.7903 72.0352 37.3445 71.936 36.9656C71.8424 36.6077 71.9721 36.087 72.2239 35.8089C72.4759 35.5308 72.7181 34.833 72.7619 34.2582C72.8619 32.9441 73.1392 32.7332 75.0337 32.5306C76.3926 32.3856 76.5444 32.4311 76.3842 32.9351C76.1002 33.8297 77.1177 34.6247 78.2556 34.3971C78.9766 34.2531 79.4009 34.3744 79.9374 34.8779C80.8242 35.7106 81.8462 35.4684 82.1249 34.3594C82.4141 33.2075 83.069 33.379 85.2238 35.171C86.282 36.0512 87.3207 36.7838 87.5317 36.7991C90.2855 36.9982 91.2223 37.4584 90.2896 38.153C90.0103 38.3613 89.6135 38.8472 89.4079 39.2328C89.0886 39.832 89.1379 40.0064 89.7471 40.433C90.6631 41.0741 91.5092 41.0667 92.1645 40.4122C92.6443 39.9328 92.7352 39.9533 93.3425 40.6801C93.7044 41.1134 94.8904 41.999 95.9774 42.6481C97.9509 43.8265 97.9586 43.8281 100.461 43.5804C102.785 43.3506 102.976 43.2757 103.078 42.5601C103.215 41.589 104.33 40.6366 105.345 40.6225C106.541 40.6062 107.292 39.7254 107.292 38.3402C107.292 37.5525 107.49 36.9809 107.857 36.7095C108.592 36.1661 109.214 34.7383 109.214 33.5948C109.214 32.4208 110.068 30.3734 110.876 29.612C111.319 29.1947 111.442 28.8081 111.285 28.3318C111.161 27.9567 111.041 27.2177 111.017 26.6896C110.979 25.8165 111.076 25.7199 112.095 25.6232C113.383 25.5013 114.018 25.0743 114.018 24.3302C114.018 23.9304 114.354 23.8021 115.459 23.7784C116.314 23.7602 117.14 23.532 117.486 23.2183C117.831 22.9066 118.613 22.689 119.387 22.689C120.638 22.689 120.708 22.7408 120.803 23.7291C120.901 24.7434 120.945 24.7719 122.585 24.866C124.2 24.9588 124.267 24.9303 124.267 24.1458C124.267 23.6968 124.087 23.3124 123.866 23.2923C123.646 23.2721 124.042 23.1415 124.747 23.0023C125.466 22.8602 126.162 22.8762 126.332 23.0391C126.5 23.1985 126.87 23.3291 127.155 23.3291C127.441 23.3291 128.169 23.7733 128.773 24.3164C129.699 25.1489 130.061 25.2792 131.078 25.1463C131.741 25.0596 132.699 25.1457 133.207 25.3371C134.486 25.8194 135.797 24.9783 135.797 23.6754C135.797 23.0257 136.217 22.3107 137.232 21.2378C138.516 19.8789 138.726 19.7662 139.233 20.1641C139.545 20.4086 139.915 20.7888 140.056 21.0087C140.389 21.5281 141.457 21.524 141.786 21.002C141.927 20.7782 142.438 20.4214 142.923 20.2086C143.407 19.996 143.803 19.5784 143.803 19.2804C143.803 18.5059 144.748 17.5691 145.534 17.5633C146.38 17.5569 146.667 17.3428 147.59 16.029C148.183 15.185 148.256 14.8765 147.951 14.5087C147.741 14.2549 147.379 14.0475 147.147 14.0475C146.842 14.0475 146.778 13.7288 146.913 12.8953C147.043 12.0978 146.963 11.6478 146.653 11.4337C146.358 11.2295 146.969 11.1965 148.447 11.337C149.68 11.4545 150.693 11.5719 150.699 11.5988C150.704 11.6254 150.955 12.19 151.257 12.8531C151.917 14.3049 153.158 15 154.072 14.4297C154.408 14.2194 154.966 14.0475 155.31 14.0475C155.654 14.0475 156.025 13.9035 156.134 13.7275C156.488 13.1549 156.935 13.3895 156.935 14.1477C156.935 15.1178 158.57 16.6976 159.289 16.422C159.584 16.309 160.033 16.3884 160.286 16.5987C160.833 17.0516 161.696 16.8256 162.833 15.9314C163.916 15.08 163.878 14.4617 162.702 13.7925C161.65 13.1949 161.398 12.6163 162.316 12.9072C162.634 13.008 163.174 12.8784 163.517 12.6188C163.86 12.3596 164.573 12.1375 165.102 12.1253C166.345 12.0962 169.869 10.2232 170.724 9.13665C171.09 8.67257 171.347 8.03951 171.296 7.72969C171.245 7.41988 171.3 7.01214 171.418 6.82394C171.537 6.63543 171.706 6.08302 171.794 5.5959C172.019 4.3573 172.564 3.80585 173.564 3.80585C174.036 3.80585 174.572 3.65574 174.755 3.47235C174.987 3.24063 175.215 3.28992 175.499 3.63238C175.976 4.20623 177.147 4.28273 177.657 3.77352C177.907 3.52356 178.32 3.51748 179.082 3.75304C183.222 5.03293 183.779 5.03037 184.233 3.72967L184.594 2.69334L184.996 3.64966C185.334 4.45331 185.321 4.66519 184.917 4.9766ZM164.616 71.707C164.619 71.8225 164.332 71.8417 163.979 71.7492C163.626 71.657 163.118 71.763 162.85 71.9848C162.316 72.4284 161.964 72.3055 162.317 71.7988C162.737 71.1952 164.121 70.7529 164.376 71.1405C164.506 71.3367 164.614 71.5914 164.616 71.707ZM159.177 78.8182C159.177 78.8842 158.814 78.9382 158.37 78.9382C157.398 78.9382 157.067 78.5107 157.569 77.9054C157.879 77.5316 158.037 77.5591 158.557 78.0795C158.898 78.4198 159.177 78.7523 159.177 78.8182ZM161.098 80.1196C161.098 80.1973 160.954 80.3497 160.778 80.4585C160.602 80.5673 160.458 80.5036 160.458 80.3174C160.458 80.1311 160.602 79.9784 160.778 79.9784C160.954 79.9784 161.098 80.0418 161.098 80.1196ZM140.359 195.357C140.275 195.798 140.006 196.158 139.762 196.158C139.177 196.158 139.203 195.856 139.85 195.143C140.527 194.395 140.542 194.401 140.359 195.357ZM131.427 198.242C131.21 198.806 131.838 199.678 132.461 199.678C133.111 199.678 133.604 198.576 133.155 198.127C132.632 197.604 131.647 197.67 131.427 198.242ZM128.905 198.609C128.318 199.196 128.318 199.2 128.933 199.815C129.493 200.375 130.848 200.49 131.148 200.005C131.445 199.525 130.772 198.499 130.036 198.306C129.672 198.211 129.168 198.346 128.905 198.609ZM121.865 199.486C120.953 200.162 121.592 201.151 122.866 201.035C123.372 200.988 124.219 200.916 124.747 200.875C125.538 200.812 125.708 200.657 125.708 199.998C125.708 199.264 125.576 199.19 124.106 199.104C123.063 199.043 122.282 199.176 121.865 199.486ZM117.883 200.132C117.439 200.666 117.527 201.648 118.034 201.816C118.218 201.877 118.65 201.718 118.995 201.462C119.488 201.095 119.549 200.876 119.28 200.436C118.809 199.668 118.351 199.568 117.883 200.132ZM90.1372 214.878C89.3387 216.56 90.2038 217.775 91.2783 216.481C91.4977 216.217 91.565 216.001 91.4279 216.001C91.2911 216.001 91.4349 215.718 91.7478 215.373C92.4275 214.622 92.1898 213.76 91.3033 213.76C90.8921 213.76 90.4805 214.155 90.1372 214.878Z" />
<path  fill="#f5f5f5"  d="M184.917 4.9766C184.599 5.22176 184.471 5.76393 184.537 6.57462C184.616 7.53158 184.824 7.89004 185.478 8.20209C185.94 8.42229 186.481 8.79835 186.68 9.03775C187.314 9.80172 187.11 12.8077 186.219 15.8078C185.749 17.3921 185.251 19.4084 185.112 20.2886C184.973 21.1687 184.485 23.4568 184.028 25.3729C183.2 28.8401 182.509 34.4384 182.78 35.4744C182.858 35.773 182.104 38.3834 181.104 41.2751C180.105 44.1671 179.122 47.1961 178.92 48.0064C178.718 48.8165 178.391 49.6806 178.192 49.9267C177.993 50.1725 177.732 50.6968 177.611 51.0917C177.49 51.4867 177.22 51.9943 177.011 52.2196C175.259 54.1114 172.407 57.953 171.386 59.7953C169.316 63.5306 166.02 68.4287 165.566 68.4418C164.872 68.4623 164.303 69.1046 164.291 69.8807C164.281 70.5228 164.271 70.5237 163.816 69.923C163.422 69.4032 163.227 69.3655 162.545 69.6759C162.102 69.8779 161.738 70.1541 161.738 70.2901C161.737 70.4258 161.233 70.5477 160.617 70.5609C159.945 70.5753 159.497 70.4309 159.497 70.1998C159.497 69.4164 158.571 68.9779 157.727 69.3623C157.216 69.5953 156.667 69.6193 156.171 69.4308C155.558 69.1978 155.269 69.2839 154.726 69.8612C154.119 70.5068 154.06 70.8764 154.169 73.3604C154.265 75.5428 154.198 76.1378 153.857 76.1378C153.113 76.1378 152.929 77.7067 153.613 78.2242C153.943 78.4738 154.382 78.6825 154.59 78.688C154.798 78.6937 155.015 79.0077 155.071 79.3857C155.127 79.7637 155.389 80.1791 155.654 80.3087C157.383 81.1569 157.919 81.3418 158.107 81.1546C158.223 81.0381 158.506 81.2106 158.736 81.5384C158.966 81.8661 159.588 82.221 160.119 82.3273C160.82 82.4671 161.033 82.656 160.896 83.0138C160.791 83.2852 160.87 83.7038 161.069 83.9442C161.338 84.2678 161.339 84.6198 161.074 85.3002C160.877 85.8059 160.646 87.6597 160.56 89.42L160.404 92.6205L161.712 95.2846C163.13 98.1725 163.273 98.8935 162.548 99.4946C162.133 99.8387 162.139 100.009 162.593 100.894C162.877 101.449 163.238 101.986 163.396 102.088C163.554 102.19 163.753 102.694 163.838 103.208C163.923 103.722 164.148 104.863 164.339 105.743C164.529 106.623 164.748 109.316 164.825 111.727L164.964 116.111L163.902 116.31C163.317 116.42 162.287 116.463 161.612 116.407C160.664 116.328 160.302 116.447 160.021 116.929C159.821 117.272 159.387 117.785 159.057 118.068C157.814 119.134 159.197 121.498 161.659 122.513C162.275 122.768 162.7 123.172 162.7 123.505C162.7 123.814 162.918 124.249 163.186 124.471C164.381 125.462 164.578 126.743 164.93 135.828C165.122 140.756 165.365 145.739 165.472 146.901L165.665 149.013L164.422 149.215C163.739 149.326 163.135 149.285 163.08 149.124C163.025 148.963 162.267 148.374 161.395 147.815C160.222 147.062 159.551 146.836 158.817 146.943C158.271 147.023 157.012 146.883 156.018 146.632C155.025 146.38 153.865 146.187 153.44 146.203C153.015 146.218 152.185 146.098 151.596 145.935C150.685 145.684 150.475 145.733 150.192 146.261C150.009 146.603 149.948 147.027 150.058 147.204C150.189 147.417 149.228 147.454 147.227 147.313C144.351 147.111 144.144 147.14 143.12 147.883C142.527 148.314 141.537 148.925 140.921 149.242C139.613 149.914 137.946 151.927 138.184 152.547C138.274 152.782 138.128 153.059 137.859 153.162C136.287 153.765 135.535 158.352 136.754 159.901L137.392 160.711L136.596 161.551C134.259 164.017 132.914 165.565 132.914 165.789C132.914 165.927 132.554 166.428 132.113 166.903C131.673 167.378 131.313 168.018 131.313 168.326C131.313 168.634 130.88 169.348 130.352 169.913C129.823 170.478 129.391 171.075 129.391 171.238C129.391 171.402 128.463 172.431 127.33 173.525C125.815 174.987 125.092 175.981 124.605 177.274C124.24 178.243 123.51 179.668 122.983 180.443C122.315 181.425 122.025 182.238 122.025 183.126C122.025 183.85 121.743 184.856 121.371 185.457C120.777 186.417 120.758 186.612 121.165 187.584C121.718 188.907 124.255 191.834 126.709 193.98C128.547 195.587 128.551 195.595 127.453 195.351C125.85 194.995 123.715 195.135 122.692 195.664C122.203 195.917 121.526 196.051 121.187 195.963C120.849 195.874 119.229 196.314 117.588 196.94C115.947 197.566 114.336 198.078 114.009 198.078C113.682 198.078 113.326 198.222 113.217 198.398C113.108 198.574 112.658 198.718 112.216 198.718C111.286 198.718 110.125 199.266 109.764 199.874C109.284 200.686 106.819 201.505 104.77 201.534C101.962 201.574 99.9155 202.345 96.4754 204.659L93.5055 206.656L91.9092 206.146C90.6935 205.757 90.224 205.725 89.9396 206.009C89.3221 206.626 90.1151 207.935 91.1809 208.057L92.079 208.16L90.8834 208.902C90.0321 209.431 89.413 210.221 88.7324 211.646C87.8962 213.397 87.7569 214.099 87.6163 217.268C87.5013 219.859 87.3187 221.039 86.9745 221.42C86.167 222.311 85.6697 225.098 86.0793 226.432C86.3304 227.249 86.3355 227.835 86.0972 228.435C85.9121 228.902 85.7734 229.771 85.7891 230.368C85.8106 231.189 85.5082 231.823 84.55 232.967C83.8531 233.799 83.1001 235.034 82.8765 235.712C82.5284 236.77 82.2469 237.028 80.895 237.53C80.0287 237.851 78.8347 238.539 78.2418 239.059C77.649 239.579 76.9748 240.005 76.7436 240.005C76.5127 240.005 75.9893 240.294 75.581 240.648C75.1726 241.002 74.1148 241.507 73.2302 241.769C71.641 242.24 70.1421 243.313 70.1379 243.981C70.1334 244.678 67.9729 245.787 66.2629 245.97C62.3386 246.391 59.8914 247.564 59.8914 249.024C59.8914 249.653 59.7697 249.685 58.0498 249.504C57.0368 249.397 55.3435 249.002 54.2866 248.624C53.2297 248.247 51.7952 247.864 51.0986 247.773C50.2953 247.667 49.6186 247.335 49.2486 246.865C48.9277 246.457 48.3445 246.023 47.9528 245.901C47.5611 245.779 46.8082 245.342 46.2797 244.932C45.7512 244.521 44.7039 243.713 43.9526 243.135C41.0266 240.886 40.8911 240.752 41.1419 240.347C41.2863 240.113 41.783 240.001 42.3201 240.079C43.5263 240.256 43.9837 239.673 43.8094 238.18C43.664 236.936 44.221 235.813 45.7266 234.314C46.3018 233.741 46.3857 233.461 46.1269 232.977C45.6725 232.129 45.7096 232.004 46.4165 232.004C47.1249 232.004 48.283 230.668 48.5719 229.517C48.8038 228.594 47.6181 226.105 46.206 224.55C45.8525 224.161 45.4608 223.41 45.3359 222.882C45.2109 222.354 44.9022 221.693 44.6498 221.413C44.2463 220.965 44.302 220.788 45.1161 219.937C46.5103 218.479 47.8202 216.059 47.7898 214.997C47.7658 214.155 47.2392 213.327 45.3243 211.12C45.0572 210.812 44.8385 210.473 44.8385 210.366C44.8385 210.259 44.4163 209.639 43.9001 208.988C43.3159 208.251 43.0574 207.65 43.2153 207.395C43.3546 207.169 43.5609 206.997 43.6733 207.012C44.3616 207.104 44.5839 206.918 45.0755 205.839C45.3765 205.179 46.1666 204.03 46.8319 203.286C47.7475 202.261 48.0412 201.658 48.0412 200.801C48.0412 200.179 48.1783 199.419 48.3458 199.114C48.5133 198.808 48.7362 197.759 48.8413 196.783C48.9844 195.449 49.2679 194.732 49.9814 193.902C50.882 192.854 51.5585 191.194 51.5623 190.023C51.5655 189.083 51.9374 188.476 52.5097 188.476C53.2556 188.476 53.9355 187.619 54.3663 186.133C54.676 185.066 54.6424 184.831 54.1034 184.293C53.7639 183.953 53.2697 183.676 53.0055 183.676C52.5158 183.676 52.4424 183.408 52.3931 181.44C52.3649 180.327 52.3624 180.325 50.7635 180.269C49.8421 180.237 48.8611 180.405 48.4528 180.664C47.424 181.318 46.6154 181.221 45.5373 180.315C45.014 179.875 44.4147 179.515 44.2056 179.515C43.9689 179.515 44.0769 179.108 44.4919 178.437C44.8586 177.844 45.1632 177.088 45.169 176.757C45.1744 176.425 45.3906 175.875 45.6494 175.533C45.9079 175.191 46.1196 174.591 46.1196 174.199C46.1196 173.807 46.3671 173.055 46.6695 172.528C47.1428 171.704 47.1598 171.459 46.7918 170.773C46.5567 170.333 46.4674 169.807 46.5936 169.603C46.7198 169.4 46.5865 168.972 46.2973 168.653C45.8099 168.114 45.8118 167.988 46.3236 166.916C46.6272 166.279 47.1377 165.676 47.4577 165.574C48.1664 165.35 48.5806 163.923 48.0819 163.425C47.8833 163.226 47.7209 162.559 47.7209 161.941C47.7209 161.076 47.4458 160.537 46.5222 159.592C45.5319 158.579 45.4066 158.313 45.8015 158.066C46.0645 157.901 46.5167 157.84 46.8066 157.93C47.5989 158.176 48.3615 157.206 48.3615 155.952C48.3615 155.34 48.5918 154.394 48.873 153.85C49.4507 152.734 49.0827 151.35 48.2081 151.35C47.9403 151.35 47.7209 151.12 47.7209 150.839C47.7209 150.559 47.4176 149.903 47.0471 149.383C46.6294 148.797 46.4424 148.175 46.5548 147.745C46.8591 146.582 45.9325 145.909 44.0272 145.909C42.9914 145.909 42.2141 146.078 41.9858 146.354C41.783 146.598 40.6778 147.246 39.5296 147.794C38.2434 148.408 37.247 149.128 36.9341 149.67C36.2122 150.921 34.2848 151.782 33.1616 151.355C32.6844 151.174 32.1841 151.094 32.0496 151.176C31.778 151.344 29.7856 149.216 29.7856 148.759C29.7856 148.6 29.4807 148.47 29.1075 148.47C28.5314 148.47 28.4609 148.338 28.6374 147.59C28.9826 146.127 28.957 145.798 28.4055 144.573C27.9568 143.578 27.926 143.037 28.206 141.052C28.5304 138.751 28.5986 135.439 28.3305 135.005C28.2559 134.884 28.6169 134.701 29.1328 134.598C30.3669 134.351 30.8127 133.494 30.4197 132.124C30.2496 131.532 30.2368 130.981 30.3912 130.883C30.5436 130.786 30.9209 129.902 31.23 128.918C31.7213 127.354 31.7357 127.012 31.3459 126.198C31.0823 125.646 30.6007 125.223 30.1657 125.161C29.7615 125.104 29.3096 124.744 29.1617 124.361C28.6345 122.998 26.0803 121.266 24.5971 121.265C23.8438 121.265 21.0225 120.296 20.6292 119.903C20.5091 119.783 20.6654 119.297 20.9764 118.823C21.2874 118.348 21.6419 117.587 21.764 117.132C21.9696 116.366 22.1204 116.304 23.7964 116.303C25.197 116.302 25.7562 116.153 26.2673 115.642C27.1945 114.715 26.8076 113.779 25.5973 114.021C24.7252 114.195 24.6989 114.158 24.484 112.44C24.2935 110.915 24.1375 110.615 23.3131 110.189C22.4573 109.747 22.409 109.643 22.833 109.16C23.7461 108.12 23.8134 107.184 23.0342 106.356C22.1207 105.384 21.1513 105.376 19.7462 106.329C18.7604 106.997 18.3521 107.064 15.8088 106.968C14.2481 106.909 12.4667 106.85 11.8502 106.838L10.7292 106.815L12.0103 106.162C13.7106 105.295 14.7326 104.328 14.7326 103.586C14.7326 103.253 14.8694 102.725 15.0366 102.413C15.5759 101.405 15.0427 100.467 13.4903 99.6917C12.6762 99.2856 11.6205 98.8593 11.144 98.7447C10.6674 98.6301 9.89361 98.0336 9.4244 97.4187C8.9552 96.8042 8.33643 96.2966 8.04882 96.2909C7.76154 96.2854 7.24654 96.0694 6.9048 95.8108C6.56275 95.5525 5.76174 95.341 5.1244 95.341C4.48705 95.341 3.68604 95.1294 3.34399 94.8711C3.00226 94.6125 2.47028 94.3965 2.16185 94.391C1.75222 94.3837 1.60137 94.1167 1.60137 93.3995C1.60137 92.8599 1.45116 92.1375 1.26733 91.7944C0.805171 90.9319 1.73493 90.5923 2.54747 91.3268C3.06183 91.7922 3.25816 91.8108 3.89678 91.4542C4.3077 91.2247 5.00429 91.0039 5.44467 90.9636C5.88505 90.9233 6.63962 90.4515 7.12163 89.9151C7.60364 89.3787 8.32042 88.9399 8.715 88.9399C9.12143 88.9399 9.85133 88.4761 10.4009 87.8687C10.9339 87.2795 11.7528 86.5517 12.2207 86.2511C13.2133 85.6139 13.4192 85.8008 13.9464 87.8191C14.4431 89.7215 15.1929 89.9593 20.5975 89.9266C23.6962 89.9081 25.702 90.0508 26.9031 90.3756C28.5169 90.8119 28.6982 90.8068 29.0649 90.3148C29.5915 89.6085 29.57 89.2318 28.9538 88.3526C28.5195 87.733 28.5038 87.474 28.85 86.6384C29.0745 86.0972 29.5713 85.2775 29.9543 84.8167C30.3377 84.3561 30.7957 83.547 30.9725 83.0189C31.2748 82.1167 31.3824 82.0645 32.7628 82.1529C33.9709 82.2303 34.2941 82.1308 34.582 81.5928C35.0611 80.6985 35.759 80.7706 36.0024 81.7387C36.1129 82.1788 36.3915 82.5388 36.6218 82.5388C36.8518 82.5388 37.3895 82.9143 37.8168 83.3729C38.2437 83.8315 38.9268 84.3359 39.3345 84.4931C40.3437 84.8826 41.4295 84.2898 41.2142 83.4673C41.008 82.679 41.522 82.4111 44.5233 81.7416C47.622 81.0506 48.2289 81.0903 49.3796 82.0578C50.499 82.9991 50.4894 82.9978 51.7074 82.3631C52.5882 81.9042 52.7124 81.917 53.5733 82.5526C54.4701 83.2154 54.5133 83.218 55.1532 82.6464C55.9843 81.9038 57.0089 79.5598 57.0089 78.4012C57.0089 77.915 57.2972 77.2564 57.6495 76.9379C58.0018 76.6195 58.29 76.093 58.29 75.7681C58.29 75.2599 58.5683 75.1741 60.2917 75.153C61.3928 75.1395 62.5817 75.0605 62.934 74.977C63.2863 74.8937 64.1994 74.7408 64.9629 74.6367C65.8315 74.519 66.416 74.2552 66.5239 73.9326C67.1706 72.0033 68.387 69.9726 69.7892 68.4821C70.6869 67.5284 71.4213 66.5429 71.4213 66.2926C71.4213 65.8702 70.9726 65.1952 69.3395 63.1609C68.4241 62.0206 64.8217 61.3091 60.9323 61.5005C58.888 61.601 57.9684 61.536 57.9652 61.2909C57.963 61.0953 57.874 60.6114 57.768 60.2152C57.5969 59.5776 57.693 59.495 58.6055 59.495C59.4664 59.495 59.9929 59.1209 61.7973 57.2259C64.1273 54.7791 64.6955 53.4128 64.6955 50.2558C64.6955 48.9707 64.5293 48.5704 63.5745 47.559C62.2902 46.1984 62.2726 46.0874 62.9702 43.7692C63.2543 42.8248 63.538 41.8723 63.6008 41.6521C63.7635 41.0802 65.0215 41.1579 65.7124 41.783C66.2363 42.2567 66.4458 42.266 67.6593 41.8681C68.9728 41.4373 71.0962 39.5503 71.0994 38.8107C71.1004 38.6122 71.3271 38.2624 71.6038 38.0329C71.8966 37.7903 72.0352 37.3445 71.936 36.9656C71.8424 36.6077 71.9721 36.087 72.2239 35.8089C72.4759 35.5308 72.7181 34.833 72.7619 34.2582C72.8619 32.9441 73.1392 32.7332 75.0337 32.5306C76.3926 32.3856 76.5444 32.4311 76.3842 32.9351C76.1002 33.8297 77.1177 34.6247 78.2556 34.3971C78.9766 34.2531 79.4009 34.3744 79.9374 34.8779C80.8242 35.7106 81.8462 35.4684 82.1249 34.3594C82.4141 33.2075 83.069 33.379 85.2238 35.171C86.282 36.0512 87.3207 36.7838 87.5317 36.7991C90.2855 36.9982 91.2223 37.4584 90.2896 38.153C90.0103 38.3613 89.6135 38.8472 89.4079 39.2328C89.0886 39.832 89.1379 40.0064 89.7471 40.433C90.6631 41.0741 91.5092 41.0667 92.1645 40.4122C92.6443 39.9328 92.7352 39.9533 93.3425 40.6801C93.7044 41.1134 94.8904 41.999 95.9774 42.6481C97.9509 43.8265 97.9586 43.8281 100.461 43.5804C102.785 43.3506 102.976 43.2757 103.078 42.5601C103.215 41.589 104.33 40.6366 105.345 40.6225C106.541 40.6062 107.292 39.7254 107.292 38.3402C107.292 37.5525 107.49 36.9809 107.857 36.7095C108.592 36.1661 109.214 34.7383 109.214 33.5948C109.214 32.4208 110.068 30.3734 110.876 29.612C111.319 29.1947 111.442 28.8081 111.285 28.3318C111.161 27.9567 111.041 27.2177 111.017 26.6896C110.979 25.8165 111.076 25.7199 112.095 25.6232C113.383 25.5013 114.018 25.0743 114.018 24.3302C114.018 23.9304 114.354 23.8021 115.459 23.7784C116.314 23.7602 117.14 23.532 117.486 23.2183C117.831 22.9066 118.613 22.689 119.387 22.689C120.638 22.689 120.708 22.7408 120.803 23.7291C120.901 24.7434 120.945 24.7719 122.585 24.866C124.2 24.9588 124.267 24.9303 124.267 24.1458C124.267 23.6968 124.087 23.3124 123.866 23.2923C123.646 23.2721 124.042 23.1415 124.747 23.0023C125.466 22.8602 126.162 22.8762 126.332 23.0391C126.5 23.1985 126.87 23.3291 127.155 23.3291C127.441 23.3291 128.169 23.7733 128.773 24.3164C129.699 25.1489 130.061 25.2792 131.078 25.1463C131.741 25.0596 132.699 25.1457 133.207 25.3371C134.486 25.8194 135.797 24.9783 135.797 23.6754C135.797 23.0257 136.217 22.3107 137.232 21.2378C138.516 19.8789 138.726 19.7662 139.233 20.1641C139.545 20.4086 139.915 20.7888 140.056 21.0087C140.389 21.5281 141.457 21.524 141.786 21.002C141.927 20.7782 142.438 20.4214 142.923 20.2086C143.407 19.996 143.803 19.5784 143.803 19.2804C143.803 18.5059 144.748 17.5691 145.534 17.5633C146.38 17.5569 146.667 17.3428 147.59 16.029C148.183 15.185 148.256 14.8765 147.951 14.5087C147.741 14.2549 147.379 14.0475 147.147 14.0475C146.842 14.0475 146.778 13.7288 146.913 12.8953C147.043 12.0978 146.963 11.6478 146.653 11.4337C146.358 11.2295 146.969 11.1965 148.447 11.337C149.68 11.4545 150.693 11.5719 150.699 11.5988C150.704 11.6254 150.955 12.19 151.257 12.8531C151.917 14.3049 153.158 15 154.072 14.4297C154.408 14.2194 154.966 14.0475 155.31 14.0475C155.654 14.0475 156.025 13.9035 156.134 13.7275C156.488 13.1549 156.935 13.3895 156.935 14.1477C156.935 15.1178 158.57 16.6976 159.289 16.422C159.584 16.309 160.033 16.3884 160.286 16.5987C160.833 17.0516 161.696 16.8256 162.833 15.9314C163.916 15.08 163.878 14.4617 162.702 13.7925C161.65 13.1949 161.398 12.6163 162.316 12.9072C162.634 13.008 163.174 12.8784 163.517 12.6188C163.86 12.3596 164.573 12.1375 165.102 12.1253C166.345 12.0962 169.869 10.2232 170.724 9.13665C171.09 8.67257 171.347 8.03951 171.296 7.72969C171.245 7.41988 171.3 7.01214 171.418 6.82394C171.537 6.63543 171.706 6.08302 171.794 5.5959C172.019 4.3573 172.564 3.80585 173.564 3.80585C174.036 3.80585 174.572 3.65574 174.755 3.47235C174.987 3.24063 175.215 3.28992 175.499 3.63238C175.976 4.20623 177.147 4.28273 177.657 3.77352C177.907 3.52356 178.32 3.51748 179.082 3.75304C183.222 5.03293 183.779 5.03037 184.233 3.72967L184.594 2.69334L184.996 3.64966C185.334 4.45331 185.321 4.66519 184.917 4.9766Z" />
</svg>
